# xmcd
# 
# Track frame offsets:
#     150
#     1982
#     19420
#     35390
#     56167
#     72927
#     93135
#     109835
#     125697
#     146582
#     161650
#     183952
#     204175
#     215617
#     231275
# 
# Disc length: 3376
# 
# Revision: 1
# Processed by: cddbd v1.5.2PL0 Copyright (c) Steve Scherf et al.
# Submitted via: fre:ac v1.0.31
# 
DISCID=d10d2e0f
DTITLE=Various Artist - Blues Jam_Hip Hop Salutes Blues Note
DYEAR=0
DGENRE=Acid Jazz
TTITLE0=Gang Starr - 24-7/365
TTITLE1=Guru - Watch What You Say
TTITLE2=Az - Your World  Don't Stop
TTITLE3=Channel Live - Homicide Ride
TTITLE4=Dream Warriors - I Wouldn't Wanna Be Ya
TTITLE5=The Jaz - A Nation Divided
TTITLE6=Mellow Man Ace - Babalu Bad Boy
TTITLE7=Dream Warriors - I've Lost My Ignorance
TTITLE8=Us3 - Lazy Day
TTITLE9=Guru and MC Solaar - Le Bien, Le Mal
TTITLE10=Ronnie Foster - Summer Song (Diamond D Remix)
TTITLE11=Boogie Monsters and Bahamadia - Say Word
TTITLE12=Aceyalone - Deep and Wide
TTITLE13=Gang Starr - Code of the Streets
TTITLE14=Bobby Hatcherson - Montara (The Roots Remix)
EXTD=
EXTT0=
EXTT1=
EXTT2=
EXTT3=
EXTT4=
EXTT5=
EXTT6=
EXTT7=
EXTT8=
EXTT9=
EXTT10=
EXTT11=
EXTT12=
EXTT13=
EXTT14=
PLAYORDER=
